<svg width="159" height="26" viewBox="0 0 159 26" fill="none" xmlns="http://www.w3.org/2000/svg">
<path d="M0.384 25V0.52H7.836C9.66 0.52 11.1 0.783999 12.156 1.312C13.236 1.84 14.004 2.584 14.46 3.544C14.94 4.504 15.18 5.632 15.18 6.928V7.936C15.18 9.832 14.364 11.284 12.732 12.292C13.884 12.748 14.76 13.408 15.36 14.272C15.96 15.136 16.26 16.168 16.26 17.368V18.376C16.26 19.696 16.02 20.86 15.54 21.868C15.06 22.852 14.268 23.62 13.164 24.172C12.06 24.724 10.584 25 8.736 25H0.384ZM7.836 4.48H4.704V10.6H7.836C8.796 10.6 9.516 10.384 9.996 9.952C10.5 9.496 10.752 8.884 10.752 8.116V6.928C10.752 6.16 10.5 5.56 9.996 5.128C9.516 4.696 8.796 4.48 7.836 4.48ZM8.736 14.56H4.704V21.04H8.736C9.744 21.04 10.512 20.8 11.04 20.32C11.568 19.84 11.832 19.192 11.832 18.376V17.188C11.832 16.372 11.568 15.736 11.04 15.28C10.512 14.8 9.744 14.56 8.736 14.56ZM35.6266 20.86V25H21.4426V0.52H35.2666V4.66H25.7626V10.528H34.1866V14.668H25.7626V20.86H35.6266Z" fill="#CC0000"/>
<path d="M45.4594 0.52L52.2994 17.26L59.1034 0.52H63.8194V25H59.6794V15.64L60.2194 7.072L54.1354 22.12H50.2834L44.3434 7.036L44.8834 15.64V25H40.7434V0.52H45.4594ZM87.907 10.168V15.316C87.907 18.436 87.127 20.896 85.567 22.696C84.007 24.472 81.727 25.36 78.727 25.36C75.703 25.36 73.411 24.472 71.851 22.696C70.315 20.896 69.547 18.436 69.547 15.316V10.168C69.547 7.048 70.315 4.6 71.851 2.824C73.411 1.048 75.703 0.159998 78.727 0.159998C81.727 0.159998 84.007 1.048 85.567 2.824C87.127 4.6 87.907 7.048 87.907 10.168ZM83.479 10.168C83.479 8.2 83.095 6.724 82.327 5.74C81.559 4.732 80.359 4.228 78.727 4.228C77.095 4.228 75.895 4.732 75.127 5.74C74.359 6.724 73.975 8.2 73.975 10.168V15.316C73.975 17.284 74.359 18.772 75.127 19.78C75.895 20.788 77.095 21.292 78.727 21.292C80.359 21.292 81.559 20.788 82.327 19.78C83.095 18.772 83.479 17.284 83.479 15.316V10.168ZM110.227 0.52L102.451 25H98.023L90.211 0.52H94.963L98.671 12.832L100.363 19.168L102.163 12.796L105.835 0.52H110.227ZM118.434 25H114.114V0.52H118.434V25ZM139.373 20.86V25H125.189V0.52H139.013V4.66H129.509V10.528H137.933V14.668H129.509V20.86H139.373ZM149.817 21.364C152.601 21.364 153.993 20.332 153.993 18.268C153.993 17.428 153.777 16.768 153.345 16.288C152.937 15.808 152.169 15.388 151.041 15.028L148.089 14.056C144.561 12.904 142.797 10.588 142.797 7.108C142.797 5.092 143.421 3.436 144.669 2.14C145.941 0.819998 147.921 0.159998 150.609 0.159998C151.737 0.159998 152.853 0.291998 153.957 0.555999C155.061 0.795999 156.237 1.192 157.485 1.744L156.153 5.452C155.001 4.996 154.017 4.672 153.201 4.48C152.409 4.264 151.593 4.156 150.753 4.156C149.649 4.156 148.773 4.36 148.125 4.768C147.501 5.152 147.189 5.86 147.189 6.892C147.189 7.66 147.405 8.296 147.837 8.8C148.293 9.28 149.037 9.688 150.069 10.024L153.021 10.996C154.797 11.596 156.129 12.472 157.017 13.624C157.929 14.752 158.385 16.252 158.385 18.124C158.385 20.284 157.701 22.036 156.333 23.38C154.965 24.7 152.817 25.36 149.889 25.36C148.737 25.36 147.537 25.228 146.289 24.964C145.065 24.676 143.721 24.196 142.257 23.524L143.589 19.816C144.933 20.392 146.073 20.8 147.009 21.04C147.969 21.256 148.905 21.364 149.817 21.364Z" fill="white"/>
</svg>
